<svg xmlns="http://www.w3.org/2000/svg" width="22.292" height="22.292" viewBox="0 0 22.292 22.292"><defs><style>.a{fill:#fff;}</style></defs><path class="a" d="M2.94,10.507a1.189,1.189,0,0,0-.752.752L0,17.825.174,18l3.449-3.449a1.143,1.143,0,0,1-.058-.29,1.188,1.188,0,1,1,1.188,1.188,1.143,1.143,0,0,1-.29-.058L1.015,18.839l.174.174,6.566-2.189a1.188,1.188,0,0,0,.752-.752l1.228-3.122L6.062,9.279ZM13.712,1.052,6.912,8.46l3.634,3.634,7.408-6.8C21.108,2.506,16.478-2.077,13.712,1.052Z" transform="translate(3.628 0) rotate(11)"/></svg>